<?xml version="1.0" standalone="no"?>
<!DOCTYPE svg PUBLIC "-//W3C//DTD SVG 20010904//EN"
 "http://www.w3.org/TR/2001/REC-SVG-20010904/DTD/svg10.dtd">
<svg version="1.0" xmlns="http://www.w3.org/2000/svg"
 width="256.000000pt" height="256.000000pt" viewBox="0 0 256.000000 256.000000"
 preserveAspectRatio="xMidYMid meet">
<metadata>
Created by potrace 1.11, written by Peter Selinger 2001-2013
</metadata>
<g transform="translate(0.000000,256.000000) scale(0.100000,-0.100000)"
fill="#000000" stroke="none">
<path d="M1705 2404 c-138 -29 -262 -96 -330 -178 -39 -45 -39 -46 -58 -25
-23 25 -42 13 -64 -43 l-15 -37 -51 50 c-78 77 -251 148 -347 143 -14 -1 -42
-2 -62 -3 -31 -1 -38 -5 -38 -21 0 -29 34 -92 73 -136 68 -79 227 -152 346
-159 63 -3 63 -3 51 -104 l-5 -45 -58 51 c-58 51 -122 87 -207 119 -62 22
-219 27 -298 9 -236 -55 -463 -256 -563 -497 -57 -138 -74 -236 -73 -413 0
-80 6 -142 18 -185 79 -299 328 -530 736 -683 128 -48 241 -77 325 -84 39 -3
78 -10 87 -14 31 -16 132 -21 178 -9 25 7 79 15 120 20 41 4 95 13 120 20 25
7 52 13 60 15 51 11 220 74 306 115 192 92 376 236 463 363 99 145 135 267
135 457 -1 210 -36 343 -136 522 -47 84 -161 199 -261 265 -139 91 -249 124
-397 118 -135 -5 -245 -48 -344 -136 l-36 -31 -1 28 c-1 63 -9 146 -14 155 -4
5 25 9 72 8 233 -2 459 113 539 277 15 30 25 57 23 59 -24 23 -201 29 -294 9z"/>
</g>
</svg>
